<?xml version="1.0" encoding="UTF-8" standalone="no" ?>
<!DOCTYPE svg PUBLIC "-//W3C//DTD SVG 1.1//EN" "http://www.w3.org/Graphics/SVG/1.1/DTD/svg11.dtd">
<svg xmlns="http://www.w3.org/2000/svg" xmlns:xlink="http://www.w3.org/1999/xlink" version="1.1" width="1280" height="1024" viewBox="0 0 1280 1024" xml:space="preserve">
<desc>Created with Fabric.js 5.3.0</desc>
<defs>
</defs>
<g transform="matrix(1 0 0 1 640 512)" id="background-logo"  >
<rect style="stroke: none; stroke-width: 0; stroke-dasharray: none; stroke-linecap: butt; stroke-dashoffset: 0; stroke-linejoin: miter; stroke-miterlimit: 4; fill: rgb(18,25,27); fill-rule: nonzero; opacity: 1;"  paint-order="stroke"  x="-640" y="-512" rx="0" ry="0" width="1280" height="1024" />
</g>
<g transform="matrix(1.9211538461538462 0 0 1.9211538461538462 639.9577346153845 641.3464099124311)" id="text-logo"  >
<g style=""  paint-order="stroke"   >
		<g transform="matrix(1 0 0 1 0 0)" id="text-logo-path-0"  >
<path style="stroke: none; stroke-width: 0.4680851063829785; stroke-dasharray: none; stroke-linecap: butt; stroke-dashoffset: 0; stroke-linejoin: miter; stroke-miterlimit: 4; fill: rgb(62,201,168); fill-rule: nonzero; opacity: 1;"  paint-order="stroke"  transform=" translate(-144.605, 15.399999999999999)" d="M 2.2 0 L 27.28 0 L 27.28 -6.16 L 9.68 -6.16 L 9.68 -30.8 L 2.2 -30.8 L 2.2 0 Z M 56.67 0.44 C 67.19 0.44 72.47 -4.66 72.47 -15.44 C 72.47 -26 67.54 -31.24 56.67 -31.24 C 46.07 -31.24 40.79 -26.31 40.79 -15.44 C 40.79 -4.84 45.76 0.44 56.67 0.44 Z M 48.27 -15.44 C 48.27 -21.91 50.91 -25.08 56.67 -25.08 C 62.17 -25.08 64.99 -22 64.99 -15.44 C 64.99 -8.93 62.44 -5.72 56.67 -5.72 C 51.04 -5.72 48.27 -8.76 48.27 -15.44 Z M 101.86 0.44 C 111.67 0.44 116.69 -3.04 116.91 -10.08 L 116.91 -16.24 L 102.78 -16.24 L 102.78 -10.08 L 109.38 -10.08 C 109.08 -7.17 105.73 -5.72 101.86 -5.72 C 96.18 -5.72 93.46 -8.62 93.46 -15.44 C 93.46 -22 96.01 -25.08 101.86 -25.08 C 106.13 -25.08 109.47 -23.76 109.47 -20.24 L 116.95 -20.24 C 116.42 -27.59 110.66 -31.24 101.86 -31.24 C 91.12 -31.24 85.98 -26.4 85.98 -15.44 C 85.98 -4.71 90.82 0.44 101.86 0.44 Z M 130.46 0 L 137.94 0 L 137.94 -30.8 L 130.46 -30.8 L 130.46 0 Z M 171.69 0 L 180.93 0 L 180.93 -30.8 L 173.45 -30.8 L 173.45 -9.55 L 160.69 -30.8 L 151.45 -30.8 L 151.45 0 L 158.93 0 L 158.93 -21.25 L 171.69 0 Z M 194.44 0 L 201.92 0 L 201.92 -30.8 L 194.44 -30.8 L 194.44 0 Z M 225.1 0 L 232.58 0 L 232.58 -24.64 L 242.26 -24.64 L 242.26 -30.8 L 215.42 -30.8 L 215.42 -24.64 L 225.1 -24.64 L 225.1 0 Z M 267.65 -11.88 L 267.65 0 L 275.13 0 L 275.13 -11.88 L 287.01 -30.8 L 279.09 -30.8 L 271.39 -18.52 L 263.69 -30.8 L 255.77 -30.8 L 267.65 -11.88 Z" stroke-linecap="round" />
</g>
</g>
</g>
<g transform="matrix(1.9211538461538462 0 0 1.9211538461538462 641.0021449503223 722.5245940169883)" id="tagline-c349782e-9ba2-4d7a-a88f-99e086d1d059-logo"  >
<g style=""  paint-order="stroke"   >
		<g transform="matrix(1 0 0 1 0 0)" id="tagline-c349782e-9ba2-4d7a-a88f-99e086d1d059-logo-path-0"  >
<filter id="SVGID_161277" y="-142.8733459357278%" height="385.7466918714556%" x="-30.265191902307787%" width="160.53038380461558%" >
	<feGaussianBlur in="SourceAlpha" stdDeviation="13"></feGaussianBlur>
	<feOffset dx="9" dy="0" result="oBlur" ></feOffset>
	<feFlood flood-color="rgb(0,0,0)" flood-opacity="1"/>
	<feComposite in2="oBlur" operator="in" />
	<feMerge>
		<feMergeNode></feMergeNode>
		<feMergeNode in="SourceGraphic"></feMergeNode>
	</feMerge>
</filter>
<path style="stroke: none; stroke-width: 0.47593618364653034; stroke-dasharray: none; stroke-linecap: butt; stroke-dashoffset: 0; stroke-linejoin: miter; stroke-miterlimit: 4; fill: rgb(62,201,168); fill-rule: nonzero; opacity: 1;filter: url(#SVGID_161277);"  paint-order="stroke"  transform=" translate(-170.9709659347361, 10.15)" d="M 8.5 0.15 C 6.44 0.15 4.87 -0.06 3.65 -0.49 C 1.25 -1.31 0.29 -3.16 1.02 -6.7 L 5.68 -6.7 C 5.51 -5.83 5.54 -5.19 5.77 -4.76 C 6.21 -3.8 7.25 -3.63 9.37 -3.63 C 10.56 -3.63 11.51 -3.71 12.15 -3.86 C 13.4 -4.15 13.95 -4.81 14.24 -6.15 C 14.36 -6.7 14.3 -7.19 14.07 -7.51 C 13.54 -8.12 12.24 -8.27 10.29 -8.27 L 8.12 -8.27 C 3.1 -8.27 1.74 -10.12 2.55 -13.95 C 2.87 -15.46 3.36 -16.62 4.09 -17.57 C 5.48 -19.43 8.18 -20.45 12.99 -20.45 C 18.53 -20.45 20.94 -18.71 19.89 -13.6 L 15.23 -13.6 C 15.4 -14.47 15.4 -15.11 15.2 -15.54 C 14.79 -16.5 13.86 -16.68 12.12 -16.68 C 10.93 -16.68 9.98 -16.62 9.37 -16.47 C 8.09 -16.18 7.54 -15.49 7.25 -14.15 C 7.11 -13.51 7.16 -12.96 7.4 -12.67 C 7.92 -12.01 9.13 -12.04 11.17 -12.04 L 13.37 -12.04 C 18.42 -12.04 19.75 -10.18 18.94 -6.35 C 18.62 -4.84 18.13 -3.68 17.43 -2.73 C 16.01 -0.87 13.31 0.15 8.5 0.15 Z M 8.5 0.43 C 13.37 0.43 16.18 -0.64 17.66 -2.55 C 18.36 -3.51 18.91 -4.79 19.23 -6.29 C 20.1 -10.35 18.59 -12.33 13.37 -12.33 L 11.17 -12.33 C 9.13 -12.33 8.03 -12.35 7.63 -12.85 C 7.45 -13.08 7.4 -13.46 7.54 -14.09 C 7.83 -15.37 8.21 -15.89 9.43 -16.18 C 10.03 -16.33 10.93 -16.39 12.12 -16.39 C 13.8 -16.39 14.56 -16.27 14.91 -15.43 C 15.11 -14.99 15.11 -14.27 14.88 -13.31 L 20.13 -13.31 C 21.34 -18.85 18.76 -20.73 12.99 -20.73 C 8.12 -20.73 5.31 -19.66 3.86 -17.75 C 3.13 -16.79 2.58 -15.52 2.26 -14.01 C 1.39 -9.95 2.9 -7.98 8.12 -7.98 L 10.29 -7.98 C 12.24 -7.98 13.37 -7.89 13.83 -7.34 C 14.01 -7.08 14.07 -6.76 13.95 -6.21 C 13.66 -4.93 13.28 -4.44 12.09 -4.15 C 11.46 -4 10.56 -3.92 9.37 -3.92 C 7.31 -3.92 6.38 -4.09 6 -4.87 C 5.8 -5.28 5.8 -6 6.03 -6.99 L 0.78 -6.99 C -0.06 -3.16 0.96 -1.07 3.54 -0.2 C 4.76 0.23 6.44 0.43 8.5 0.43 Z M 42.86 -0.15 L 38.22 -0.15 L 42.46 -20.16 L 47.1 -20.16 Z M 37.87 0.15 L 43.09 0.15 L 47.44 -20.45 L 42.22 -20.45 Z M 82.59 -0.15 L 76.7 -0.15 L 71.14 -14.5 L 68.09 -0.15 L 63.45 -0.15 L 67.69 -20.16 L 73.57 -20.16 L 79.14 -5.8 L 82.19 -20.16 L 86.83 -20.16 Z M 76.53 0.15 L 82.82 0.15 L 87.17 -20.45 L 81.95 -20.45 L 79.08 -6.79 L 73.75 -20.45 L 67.45 -20.45 L 63.1 0.15 L 68.32 0.15 L 71.2 -13.51 Z M 113.39 0.15 C 106.2 0.15 103.82 -3.19 105.3 -10.15 C 106.84 -17.34 110.84 -20.45 117.86 -20.45 C 123.54 -20.45 126.73 -18.15 126.12 -13.49 L 121.48 -13.49 C 121.86 -15.78 119.77 -16.68 116.99 -16.68 C 113.07 -16.68 110.87 -14.56 109.94 -10.21 C 108.95 -5.6 110.43 -3.63 114.26 -3.63 C 116.93 -3.63 119.51 -4.67 120.03 -6.79 L 124.67 -6.79 C 123.63 -2.18 119.86 0.15 113.39 0.15 Z M 113.39 0.43 C 120.15 0.43 124.03 -2.06 125.02 -7.08 L 119.8 -7.08 C 119.45 -4.99 116.93 -3.92 114.26 -3.92 C 110.61 -3.92 109.3 -5.77 110.23 -10.15 C 111.16 -14.44 113.19 -16.39 116.99 -16.39 C 119.83 -16.39 121.74 -15.54 121.13 -13.2 L 126.35 -13.2 C 127.14 -18.21 123.77 -20.73 117.86 -20.73 C 110.72 -20.73 106.55 -17.46 105.01 -10.21 C 103.47 -3.02 106.02 0.43 113.39 0.43 Z M 160.14 -0.15 L 143.9 -0.15 L 148.13 -20.16 L 164.37 -20.16 L 163.59 -16.39 L 151.99 -16.39 L 151.06 -12.04 L 159.76 -12.04 L 158.95 -8.27 L 150.25 -8.27 L 149.32 -3.92 L 160.92 -3.92 Z M 143.55 0.15 L 160.37 0.15 L 161.27 -4.21 L 149.67 -4.21 L 150.48 -7.98 L 159.18 -7.98 L 160.11 -12.33 L 151.41 -12.33 L 152.22 -16.1 L 163.82 -16.1 L 164.72 -20.45 L 147.9 -20.45 Z M 204.74 -4.03 C 205.99 -8.96 208.63 -11.17 213.06 -11.17 L 214.69 -11.17 C 215.88 -11.17 216.8 -11.19 217.33 -11.25 C 218.4 -11.37 219.12 -11.86 219.44 -13.22 L 219.62 -14.09 C 219.76 -14.76 219.76 -15.34 219.62 -15.66 C 219.27 -16.44 217.94 -16.68 215.79 -16.68 C 214.95 -16.68 214.22 -16.62 213.7 -16.5 C 212.72 -16.24 211.85 -15.43 211.41 -13.6 L 206.74 -13.6 C 207.9 -18.73 211.09 -20.45 216.63 -20.45 C 219.04 -20.45 220.84 -20.18 222.05 -19.69 C 224.43 -18.71 224.9 -16.99 224.26 -14.01 L 224.08 -13.14 C 223.24 -9.22 221.1 -7.4 216.02 -7.4 L 213.85 -7.4 C 211.12 -7.4 209.99 -6.41 209.38 -3.92 L 222.11 -3.92 L 221.33 -0.15 L 203.9 -0.15 Z M 204.45 -4.09 L 203.55 0.15 L 221.56 0.15 L 222.46 -4.21 L 209.76 -4.21 C 210.37 -6.32 211.41 -7.11 213.85 -7.11 L 216.02 -7.11 C 221.21 -7.11 223.53 -9.11 224.37 -13.08 L 224.55 -13.95 C 225.19 -16.99 224.66 -18.94 222.17 -19.98 C 220.95 -20.47 219.04 -20.73 216.63 -20.73 C 210.86 -20.73 207.5 -18.85 206.39 -13.31 L 211.64 -13.31 C 212.02 -15.14 212.8 -15.95 213.76 -16.21 C 214.28 -16.33 214.95 -16.39 215.79 -16.39 C 217.88 -16.39 219.04 -16.21 219.33 -15.54 C 219.47 -15.23 219.47 -14.82 219.33 -14.15 L 219.15 -13.28 C 218.89 -12.09 218.34 -11.66 217.27 -11.54 C 216.75 -11.48 215.88 -11.46 214.69 -11.46 L 213.06 -11.46 C 208.51 -11.46 205.76 -9.19 204.45 -4.09 Z M 251.58 0.15 C 244.79 0.15 242.59 -3.19 244.06 -10.15 C 245.6 -17.34 249.4 -20.45 256.04 -20.45 C 262.8 -20.45 264.97 -17.17 263.49 -10.21 C 261.96 -2.96 258.16 0.15 251.58 0.15 Z M 251.58 0.43 C 258.27 0.43 262.25 -2.84 263.78 -10.15 C 265.32 -17.34 262.97 -20.73 256.04 -20.73 C 249.28 -20.73 245.31 -17.46 243.77 -10.21 C 242.24 -3.02 244.62 0.43 251.58 0.43 Z M 248.7 -10.21 C 247.75 -5.68 248.97 -3.63 252.45 -3.63 C 255.93 -3.63 257.96 -5.8 258.85 -10.15 C 259.84 -14.65 258.62 -16.68 255.17 -16.68 C 251.6 -16.68 249.63 -14.56 248.7 -10.21 Z M 248.99 -10.15 C 249.92 -14.44 251.78 -16.39 255.17 -16.39 C 258.39 -16.39 259.49 -14.53 258.56 -10.21 C 257.67 -5.92 255.75 -3.92 252.45 -3.92 C 249.2 -3.92 248.1 -5.8 248.99 -10.15 Z M 282.78 -4.03 C 284.03 -8.96 286.67 -11.17 291.1 -11.17 L 292.73 -11.17 C 293.92 -11.17 294.84 -11.19 295.37 -11.25 C 296.44 -11.37 297.16 -11.86 297.48 -13.22 L 297.66 -14.09 C 297.8 -14.76 297.8 -15.34 297.66 -15.66 C 297.31 -16.44 295.97 -16.68 293.83 -16.68 C 292.99 -16.68 292.26 -16.62 291.74 -16.5 C 290.75 -16.24 289.88 -15.43 289.45 -13.6 L 284.78 -13.6 C 285.94 -18.73 289.13 -20.45 294.67 -20.45 C 297.08 -20.45 298.87 -20.18 300.09 -19.69 C 302.47 -18.71 302.93 -16.99 302.3 -14.01 L 302.12 -13.14 C 301.28 -9.22 299.13 -7.4 294.06 -7.4 L 291.88 -7.4 C 289.16 -7.4 288.03 -6.41 287.42 -3.92 L 300.15 -3.92 L 299.37 -0.15 L 281.94 -0.15 Z M 282.49 -4.09 L 281.59 0.15 L 299.6 0.15 L 300.5 -4.21 L 287.8 -4.21 C 288.4 -6.32 289.45 -7.11 291.88 -7.11 L 294.06 -7.11 C 299.25 -7.11 301.57 -9.11 302.41 -13.08 L 302.59 -13.95 C 303.22 -16.99 302.7 -18.94 300.21 -19.98 C 298.99 -20.47 297.08 -20.73 294.67 -20.73 C 288.9 -20.73 285.53 -18.85 284.43 -13.31 L 289.68 -13.31 C 290.06 -15.14 290.84 -15.95 291.8 -16.21 C 292.32 -16.33 292.99 -16.39 293.83 -16.39 C 295.92 -16.39 297.08 -16.21 297.37 -15.54 C 297.51 -15.23 297.51 -14.82 297.37 -14.15 L 297.19 -13.28 C 296.93 -12.09 296.38 -11.66 295.31 -11.54 C 294.78 -11.48 293.92 -11.46 292.73 -11.46 L 291.1 -11.46 C 286.55 -11.46 283.79 -9.19 282.49 -4.09 Z M 328.34 0.15 C 323.23 0.15 320.8 -1.28 321.23 -5.54 L 325.96 -5.54 C 325.99 -3.94 327.03 -3.63 329.18 -3.63 C 330.37 -3.63 331.32 -3.71 331.96 -3.86 C 333.21 -4.15 333.76 -4.81 334.05 -6.15 L 334.37 -7.6 C 334.49 -8.24 334.46 -8.79 334.22 -9.08 C 333.7 -9.74 332.48 -9.71 330.45 -9.71 C 328.8 -9.71 327.44 -9.48 326.54 -8.67 L 321.81 -8.67 L 324.25 -20.16 L 341.1 -20.16 L 340.31 -16.39 L 328.13 -16.39 L 327.29 -12.41 C 328.48 -13.11 329.99 -13.49 331.76 -13.49 L 333.5 -13.49 C 338.55 -13.49 339.88 -11.63 339.07 -7.8 L 338.75 -6.35 C 338.43 -4.84 337.94 -3.68 337.24 -2.73 C 335.82 -0.87 333.15 0.15 328.34 0.15 Z M 328.34 0.43 C 333.21 0.43 335.99 -0.64 337.47 -2.55 C 338.17 -3.51 338.72 -4.79 339.04 -6.29 L 339.36 -7.74 C 340.23 -11.8 338.72 -13.78 333.5 -13.78 L 331.76 -13.78 C 330.22 -13.78 328.8 -13.49 327.7 -12.96 L 328.37 -16.1 L 340.55 -16.1 L 341.45 -20.45 L 324.02 -20.45 L 321.46 -8.38 L 326.66 -8.38 C 327.5 -9.19 328.8 -9.43 330.45 -9.43 C 332.48 -9.43 333.59 -9.4 333.99 -8.9 C 334.17 -8.67 334.2 -8.29 334.08 -7.66 L 333.76 -6.21 C 333.47 -4.93 333.09 -4.44 331.9 -4.15 C 331.27 -4 330.37 -3.92 329.18 -3.92 C 326.97 -3.92 326.16 -4.18 326.25 -5.83 L 320.97 -5.83 C 320.39 -1.16 323 0.43 328.34 0.43 Z" stroke-linecap="round" />
</g>
</g>
</g>
<g transform="matrix(1.9211538461538462 0 0 1.9211538461538462 640 425.10894082198945)" id="tagline-83fdfb2a-8044-4ad8-b129-1c6be14b1c43-logo"  >
<g style=""  paint-order="stroke"   >
		<g transform="matrix(1 0 0 1 0 0)" id="tagline-83fdfb2a-8044-4ad8-b129-1c6be14b1c43-logo-path-0"  >
<linearGradient id="SVGID_161281" gradientUnits="userSpaceOnUse" gradientTransform="matrix(1 0 0 1 7.75 -108.5)"  x1="-7.75" y1="-27.766699999999958" x2="-7.75" y2="147.23330000000004">
<stop offset="0%" style="stop-color:rgb(66,230,149);stop-opacity: 1"/>
<stop offset="100%" style="stop-color:rgb(59,178,184);stop-opacity: 1"/>
</linearGradient>
<path style="stroke: rgb(255,255,255); stroke-width: 0; stroke-dasharray: none; stroke-linecap: butt; stroke-dashoffset: 0; stroke-linejoin: miter; stroke-miterlimit: 4; fill: url(#SVGID_161281); fill-rule: nonzero; opacity: 1;"  paint-order="stroke"  transform=" translate(-51.925, 54.25)" d="M 7.75 0 L 96.1 0 L 96.1 -21.7 L 34.1 -21.7 L 34.1 -108.5 L 7.75 -108.5 L 7.75 0 Z" stroke-linecap="round" />
</g>
</g>
</g>
</svg>